<svg width="600" height="400" viewBox="0 0 600 400" fill="none" xmlns="http://www.w3.org/2000/svg">
  <rect width="600" height="400" rx="40" fill="url(#paint0_linear_1_2)"/>
  <g opacity="0.4">
    <circle cx="100" cy="100" r="150" fill="url(#paint1_radial_1_2)"/>
    <circle cx="500" cy="300" r="120" fill="url(#paint2_radial_1_2)"/>
  </g>
  <rect x="120" y="80" width="360" height="240" rx="32" fill="white" fill-opacity="0.05" stroke="white" stroke-opacity="0.1" stroke-width="2"/>
  <rect x="140" y="100" width="80" height="80" rx="16" fill="white" fill-opacity="0.1"/>
  <rect x="235" y="100" width="225" height="15" rx="7.5" fill="white" fill-opacity="0.1"/>
  <rect x="235" y="125" width="180" height="15" rx="7.5" fill="white" fill-opacity="0.05"/>
  <rect x="140" y="200" width="320" height="100" rx="20" fill="white" fill-opacity="0.05" stroke="white" stroke-opacity="0.1"/>
  <path d="M160 250H200M215 250H300M315 250H440" stroke="white" stroke-opacity="0.2" stroke-width="4" stroke-linecap="round"/>
  <path d="M160 270H240M255 270H400" stroke="white" stroke-opacity="0.1" stroke-width="4" stroke-linecap="round"/>
  <defs>
    <linearGradient id="paint0_linear_1_2" x1="0" y1="0" x2="600" y2="400" gradientUnits="userSpaceOnUse">
      <stop stop-color="#4F46E5"/>
      <stop offset="1" stop-color="#3730A3"/>
    </linearGradient>
    <radialGradient id="paint1_radial_1_2" cx="0" cy="0" r="1" gradientUnits="userSpaceOnUse" gradientTransform="translate(100 100) rotate(90) scale(150)">
      <stop stop-color="white" stop-opacity="0.3"/>
      <stop offset="1" stop-color="white" stop-opacity="0"/>
    </radialGradient>
    <radialGradient id="paint2_radial_1_2" cx="0" cy="0" r="1" gradientUnits="userSpaceOnUse" gradientTransform="translate(500 300) rotate(90) scale(120)">
      <stop stop-color="#60A5FA" stop-opacity="0.2"/>
      <stop offset="1" stop-color="#60A5FA" stop-opacity="0"/>
    </radialGradient>
  </defs>
</svg>
